<?xml version="1.0" encoding="UTF-8"?>
<svg width="996px" height="158px" enable-background="new 0 0 995.517 158.361" version="1.1" viewBox="0 0 996 158" xml:space="preserve" xmlns="http://www.w3.org/2000/svg">
<title>Russian Railways logo</title>
<g fill="#C4151C">
<path d="m252 14v5.77h49.5c3.3 0 8.25 0 11.5 3.3s3.3 8.25 3.3 11.5v49.5c0 3.3 0 8.25-3.3 11.5-3.3 3.3-8.25 3.3-11.5 3.3h-23.9c-4.12 0-9.49 0-11.5-4.54-2.06-4.54 0.824-8.66 3.3-12l32.2-42.9h-49.5l-19.8 26.4c-3.32 4.42-6.19 8.25-6.19 13.2 0 4.95 2.67 8.51 6.19 13.2l4.95 6.6c4.95 6.6 9.9 13.2 16.5 16.5 6.6 3.3 14.4 3.3 25.2 3.3h21.4c12.4 0 30.9 0 43.3-12.4s12.4-30.5 12.4-37.1v-19.8c0-6.6 0-24.7-12.4-37.1s-30.9-12.4-43.3-12.4l-34.2-0.011c-3.3-1e-3 -7.42 0-10.7 3.3-3.3 3.3-3.3 7.42-3.3 10.7"/>
<polyline points="193 39.6 242 39.6 183 119 134 119 193 39.6"/>
<path d="m0 53.6c0-3.3 0-7.42 3.3-10.7s7.42-3.3 10.7-3.3h82.9c10.7 0 18.6 0 25.2 3.3s11.5 9.9 16.5 16.5l4.95 6.6c3.51 4.68 6.19 8.25 6.19 13.2 0 4.95-2.87 8.78-6.19 13.2l-19.8 26.4h-49.5l32.2-42.9c2.47-3.3 5.36-7.42 3.3-12-2.06-4.54-7.42-4.54-11.5-4.54h-38.8v99h-39.6v-99h-19.8v-5.78"/></g><g fill="#231F20">
<path d="m403 105c-2.97 4.04-6 8.02-8.97 12v2.26h8.37c4.1-5.46 6.24-8.31 6.24-11.6h8.2v11.6h7.84v-11.6h8.2c0 3.27 2.14 6.12 6.24 11.6h8.37v-2.26l-9.03-12c7.6-5.7 7.6-5.7 7.6-13.2v-2.49h-8.55v2.49c0 9.09 0 9.09-8.91 9.09h-3.92v-11.6h-7.84v11.6h-3.92c-8.91 0-8.91 0-8.91-9.09v-2.49h-8.55v2.49c0 7.48 0 7.48 7.54 13.2"/>
<path d="m463 101c0-6.59 0-6.59 7.3-6.59 7.3 0 7.3 0 7.3 6.59h-14.6m0 5.34h7.3c7.66-0.06 9.92 0.06 12.5-0.535l3.03-0.712v-2.91c0-4.93 0-14.2-14.1-14.2h-2.85c-14.1 0-14.1 9.26-14.1 14.3v2.85c0 5.34 0.118 14.3 15.6 14.3 2.32 0 7.54 0 13.2-1.42v-6.41h-1.6l-5.7 1.42h-6.06c-7.3-2e-3 -7.3-2e-3 -7.3-6.59z" clip-rule="evenodd" fill-rule="evenodd"/>
<path d="m499 88.8c0 4.51-0.356 18.1-7.48 27.6v2.32h8.73c5.17-6.89 5.17-15.9 5.17-23.3h12.3v23.3h7.84v-29.9h-26.5"/>
<path d="m543 101c0-6.59 0-6.59 7.31-6.59 7.3 0 7.3 0 7.3 6.59h-14.6m0 5.34h7.31c7.66-0.06 9.92 0.06 12.5-0.535l3.03-0.712v-2.91c0-4.93 0-14.2-14.1-14.2h-2.85c-14.1 0-14.1 9.26-14.1 14.3v2.85c0 5.34 0.118 14.3 15.6 14.3 2.32 0 7.54 0 13.2-1.42v-6.41h-1.6l-5.7 1.42h-6.06c-7.3-2e-3 -7.3-2e-3 -7.3-6.59z" clip-rule="evenodd" fill-rule="evenodd"/>
<path d="m595 104v-0.891c6.06-1.54 6.06-5.28 6.06-6.71 0-2.85 0-8.55-14.4-8.55-2.14 0-7.13 0-12.8 1.43v6.41h1.6l5.7-1.43h6.59c4.57 0 4.81 0 4.81 3.32 0 3.27 0 3.27-4.81 3.27h-6.59v5.34h6.59c4.57 0 4.81 0 4.81 3.27 0 3.33 0 3.33-4.81 3.33h-6.59l-5.7-1.43h-1.6v6.41c5.7 1.42 10.7 1.42 12.8 1.42 14.4 0 14.4-5.7 14.4-8.55 0-1.42 0-5.16-6.06-6.65"/>
<polyline points="634 88.8 634 100 618 100 618 88.8 610 88.8 610 119 618 119 618 107 634 107 634 119 641 119 641 88.8 634 88.8"/></g><g clip-rule="evenodd" fill="#231F20" fill-rule="evenodd">
<path d="m666 104c6.24 0 6.24 0 6.24 4.63 0 4.63 0 4.63-6.24 4.63h-6.24v-9.26h6.24m28-15h-7.84v29.9h7.84v-29.9zm-26.9 29.9c9.44 0 13.4-2.08 13.4-10.2 0-4.45 0-10.9-12.3-10.9-1.78 0-4.81 0.18-8.37 1.07v-9.98h-7.84v29.9h15.1z"/>
<path d="m712 101c0-6.59 0-6.59 7.3-6.59s7.3 0 7.3 6.59h-14.6m0 5.34h7.3c7.66-0.06 9.92 0.06 12.5-0.535l3.03-0.712v-2.91c0-4.93 0-14.2-14.1-14.2h-2.85c-14.1 0-14.1 9.26-14.1 14.3v2.85c0 5.34 0.119 14.3 15.6 14.3 2.32 0 7.54 0 13.2-1.42v-6.41h-1.6l-5.7 1.42h-6.06c-7.3-2e-3 -7.3-2e-3 -7.3-6.59z"/>
<path d="m767 103c0-8.02 0-7.84 10.6-7.84 1.43 0 3.39 0.177 5.76 0.712v12.8l-7.6 1.9c-8.79 1e-3 -8.79 1e-3 -8.79-7.6m-4.63 20.7v6.77c5.7 1.43 10.3 1.43 12.1 1.43 16.2 0 16.7-7.01 16.7-15v-27.8h-2.56l-3.8 2.85c-2.61-3.39-8.97-3.5-11-3.5-15.1 0-15.1 9.5-15.1 13.8v1.43c0 4.99 0 13.2 12.8 13.2 3.86 0 8.43-1.07 11.8-3.56v2.49c0 9.2-0.178 9.26-9.62 9.26h-4.1l-5.7-1.43h-1.6z"/>
<path d="m815 88.1c-15.1 0-15.1 8.91-15.1 14.3v2.85c0 5.34 0 14.3 15.1 14.3h2.85c15.1 0 15.1-8.91 15.1-14.3v-2.85c0-5.34 0-14.3-15.1-14.3h-2.85m1.42 6.59c8.37 0 8.37 0 8.37 9.09s0 9.09-8.37 9.09-8.37 0-8.37-9.09 0-9.09 8.37-9.09z"/>
<path d="m866 104c0 8.91 0 8.91-8.73 8.91-2.14 0-4.87 0-7.66-0.713v-15l7.6-1.9c8.79 0 8.79 0.118 8.79 8.67m-24.2-15v42h7.84v-13c3.56 0.891 6.41 1.6 10.7 1.6 13.9 0 13.9-10.2 13.9-14.3v-2.85c0-4.99 0-14.3-13-14.3-6.65 0-10.5 2.91-12.6 4.51l-2.85-3.8h-3.92z"/>
<path d="m898 88.1c-15.1 0-15.1 8.91-15.1 14.3v2.85c0 5.34 0 14.3 15.1 14.3h2.85c15.1 0 15.1-8.91 15.1-14.3v-2.85c0-5.34 0-14.3-15.1-14.3h-2.85m1.42 6.59c8.37 0 8.37 0 8.37 9.09s0 9.09-8.37 9.09-8.37 0-8.37-9.09 0-9.09 8.37-9.09z"/>
</g><g fill="#231F20"><path d="m939 88.1c-2.85 0-6.59 0-12.3 1.43v6.41h1.6l5.7-1.42h7.3c3.92 0 3.92 0 3.92 2.26 0 1.54 0 2.02-3.03 2.55l-7.13 1.78c-4.1 1.01-9.8 2.55-9.8 8.73 0 4.1 0 9.62 14.4 9.62 2.85 0 6.59 0 12.3-1.42v-6.41h-1.6c-2.38 0.653-4.63 1.19-5.52 1.43h-7.48c-3.92 0-3.92 0-3.92-2.26 0-1.36 0-1.66 1.66-2.14l3.98-1.07 4.51-1.13c4.1-1.01 9.8-2.49 9.8-8.73-1e-3 -4.1-1e-3 -9.62-14.4-9.62"/>
<path d="m990 120 5.82-4.34c-2.14-2.85-2.14-2.85-2.14-7.9v-18.5h-7.84v21.7l-7.6 1.9c-8.08 0-8.08 0-8.08-8.25v-15.4h-7.84v16.6c0 5.88 0 14.1 11.9 14.1 6.24 0 10.1-2.91 12.2-4.51l3.5 4.63"/>
<path d="m396 17.3v42h8.55v-11.6h6.77c11.6 0 20.7 0 20.7-15.2 0-15.3-9.09-15.3-20.7-15.3h-15.3m8.55 23v-15.5h10.3c7.66 0 8.02 0 8.02 7.78 0 7.54 0 7.72-8.02 7.72h-10.3z" clip-rule="evenodd" fill-rule="evenodd"/>
<path d="m454 28.7c-15.1 0-15.1 8.91-15.1 14.3v2.85c0 5.34 0 14.3 15.1 14.3h2.85c15.1 0 15.1-8.91 15.1-14.3v-2.85c0-5.34 0-14.3-15.1-14.3h-2.85m1.42 6.59c8.37 0 8.37 0 8.37 9.09s0 9.09-8.37 9.09-8.37 0-8.37-9.09 0-9.09 8.37-9.09z" clip-rule="evenodd" fill-rule="evenodd"/>
<path d="m495 60.1c2.14 0 7.66 0 13.4-1.43v-6.41h-1.6l-5.76 1.42h-3.38c-9.92 0-9.92 0-9.92-9.26s0-9.26 7.3-9.26c6.18 0 6.18 0 7.66 5.88l7.13-1.78c0-2.85 0-10.5-13.4-10.5h-2.85c-14.1 0-14.1 8.91-14.1 14.3v2.85c0 5.34 0 14.3 15.5 14.3"/>
<path d="m533 60.1c2.14 0 7.66 0 13.4-1.43v-6.41h-1.6l-5.76 1.42h-3.38c-9.92 0-9.92 0-9.92-9.26s0-9.26 7.3-9.26c6.18 0 6.18 0 7.66 5.88l7.13-1.78c0-2.85 0-10.5-13.4-10.5h-2.85c-14.1 0-14.1 8.91-14.1 14.3v2.85c0 5.34 0 14.3 15.5 14.3"/>
<path d="m583 60.2 5.82-4.34c-2.14-2.85-2.14-2.85-2.14-7.9v-18.5h-7.84v21.7l-7.6 1.9c-8.08 0-8.08 0-8.08-8.25v-15.4h-7.84v16.6c0 5.88 0 14.1 11.9 14.1 6.24 0 10.1-2.91 12.2-4.51l3.5 4.63"/>
<path d="m611 18.8c-3.86 0-3.86 0-5.76-2.14l-3.44 2.67c3.74 4.81 5.64 5.17 11.1 5.17h1.31c5.4 0 7.36-0.357 11-5.17l-3.44-2.67c-1.84 2.14-1.84 2.14-5.76 2.14h-5.05m14.5 41.5 5.82-4.34c-2.14-2.85-2.14-2.85-2.14-7.9v-18.5h-7.84v21.7l-7.6 1.9c-7.9 0-8.08 0-8.08-8.25v-15.4h-7.84v16.6c0 5.88 0 14.1 11.9 14.1 6.24 0 10.1-2.91 12.2-4.51l3.5 4.63z" clip-rule="evenodd" fill-rule="evenodd"/>
<path d="m654 60.1c2.14 0 7.66 0 13.4-1.43v-6.41h-1.6l-5.76 1.42h-3.39c-9.92 0-9.92 0-9.92-9.26s0-9.26 7.3-9.26c6.18 0 6.18 0 7.66 5.88l7.13-1.78c0-2.85 0-10.5-13.4-10.5h-2.85c-14.1 0-14.1 8.91-14.1 14.3v2.85c1e-3 5.34 1e-3 14.3 15.5 14.3"/>
<path d="m678 29.5v29.9h7.84v-11.6h9.62c0 3.27 2.14 6.12 6.23 11.6h8.37v-2.26l-9.03-12c7.6-5.7 7.6-5.7 7.6-13.2v-2.49h-8.55v2.49c0 9.09 0 9.09-8.91 9.09h-5.34v-11.6h-7.84"/>
<path d="m746 60.2 5.82-4.34c-2.14-2.85-2.14-2.85-2.14-7.9v-18.5h-7.84v21.7l-7.6 1.9c-8.08 0-8.08 0-8.08-8.25v-15.4h-7.84v16.6c0 5.88 0 14.1 11.9 14.1 6.24 0 10.1-2.91 12.2-4.51l3.5 4.63"/>
<path d="m767 41.7c0-6.59 0-6.59 7.31-6.59 7.3 0 7.3 0 7.3 6.59h-14.6m0 5.34h7.31c7.66-0.06 9.92 0.06 12.5-0.535l3.03-0.712v-2.91c0-4.93 0-14.2-14.1-14.2h-2.85c-14.1 0-14.1 9.26-14.1 14.3v2.85c0 5.34 0.119 14.3 15.6 14.3 2.32 0 7.54 0 13.2-1.43v-6.41h-1.6l-5.7 1.42h-6.06c-7.31-1e-3 -7.31-1e-3 -7.31-6.59z" clip-rule="evenodd" fill-rule="evenodd"/>
</g></svg>
